<svg xmlns="http://www.w3.org/2000/svg" version="1.1" xmlns:xlink="http://www.w3.org/1999/xlink" xmlns:svgjs="http://svgjs.com/svgjs" width="1440" height="560" preserveAspectRatio="none" viewBox="0 0 1440 560"><g mask="url(&quot;#SvgjsMask1327&quot;)" fill="none"><rect width="1440" height="560" x="0" y="0" fill="url(#SvgjsLinearGradient1328)"></rect><path d="M1440 0L833.54 0L1440 179.44z" fill="rgba(255, 255, 255, .1)"></path><path d="M833.54 0L1440 179.44L1440 305.53999999999996L577.99 0z" fill="rgba(255, 255, 255, .075)"></path><path d="M577.99 0L1440 305.53999999999996L1440 320.65999999999997L577.47 0z" fill="rgba(255, 255, 255, .05)"></path><path d="M577.47 0L1440 320.65999999999997L1440 471.05999999999995L530.62 0z" fill="rgba(255, 255, 255, .025)"></path><path d="M0 560L191.19 560L0 296.68z" fill="rgba(0, 0, 0, .1)"></path><path d="M0 296.68L191.19 560L441.57 560L0 221.74z" fill="rgba(0, 0, 0, .075)"></path><path d="M0 221.74L441.57 560L872.65 560L0 166.04000000000002z" fill="rgba(0, 0, 0, .05)"></path><path d="M0 166.04000000000002L872.65 560L1029.74 560L0 78.11000000000001z" fill="rgba(0, 0, 0, .025)"></path></g><defs><mask id="SvgjsMask1327"><rect width="1440" height="560" fill="#ffffff"></rect></mask><linearGradient x1="15.28%" y1="139.29%" x2="84.72%" y2="-39.29%" gradientUnits="userSpaceOnUse" id="SvgjsLinearGradient1328"><stop stop-color="#0e2a47" offset="0"></stop><stop stop-color="rgba(198, 246, 213, 1)" offset="1"></stop></linearGradient></defs></svg>