<svg width="0" height="0" class="hidden">
  <symbol version="1.0" xmlns="http://www.w3.org/2000/svg" viewBox="0 0 500 500" id="plus" >
  <g fill="#fff">
    <path d="M247.7 1.4C239.4 4.5 233 11.7 231.1 20c-.7 2.9-1.1 40.8-1.1 107.2v102.7l-105.2.3c-94 .3-105.7.5-108.8 1.9-5.2 2.4-9.7 6.5-12.8 11.8C.9 247.8.5 249.6.5 256c0 6.4.4 8.2 2.7 12.1 3.1 5.3 7.6 9.4 12.8 11.8 3.1 1.4 14.8 1.6 108.8 1.9l105.2.3v102.4c0 70.2.3 104 1.1 107.5 1.4 6.4 6 12.5 12.4 16.5 4.3 2.6 5.7 3 12.4 3 6.5 0 8.3-.4 12.2-2.7 5.3-3.1 9.4-7.6 11.8-12.8 1.4-3.1 1.6-14.8 1.9-108.7l.3-105.2 105.2-.3c93.9-.3 105.6-.5 108.7-1.9 5.2-2.4 9.7-6.5 12.8-11.8 2.3-3.9 2.7-5.7 2.7-12.1 0-6.4-.4-8.2-2.7-12.1-3.1-5.3-7.6-9.4-12.8-11.8-3.1-1.4-14.8-1.6-108.7-1.9l-105.2-.3-.3-105.2c-.3-115.4.1-108-6.3-115.5-6.4-7.6-18.9-11.1-27.8-7.8z"></path></g>
  </symbol>
  <symbol xmlns="http://www.w3.org/2000/svg" viewBox="0 0 329.269 329" id="close">
    <path d="M194.8 164.77L323.013 36.555c8.343-8.34 8.343-21.825 0-30.164-8.34-8.34-21.825-8.34-30.164 0L164.633 134.605 36.422 6.391c-8.344-8.34-21.824-8.34-30.164 0-8.344 8.34-8.344 21.824 0 30.164l128.21 128.215L6.259 292.984c-8.344 8.34-8.344 21.825 0 30.164a21.266 21.266 0 0015.082 6.25c5.46 0 10.922-2.09 15.082-6.25l128.21-128.214 128.216 128.214a21.273 21.273 0 0015.082 6.25c5.46 0 10.922-2.09 15.082-6.25 8.343-8.34 8.343-21.824 0-30.164zm0 0"></path>
  </symbol>
  <symbol xmlns="http://www.w3.org/2000/svg" viewBox="0 0 508.044 508.044" id="quotes">
    <path d="M.108 352.536c0 66.794 54.144 120.938 120.937 120.938 66.794 0 120.938-54.144 120.938-120.938s-54.144-120.937-120.938-120.937c-13.727 0-26.867 2.393-39.168 6.61C109.093 82.118 230.814-18.543 117.979 64.303-7.138 156.17-.026 348.84.114 352.371c0 .055-.006.104-.006.165zm266.061 0c0 66.794 54.144 120.938 120.938 120.938s120.938-54.144 120.938-120.938S453.9 231.599 387.106 231.599c-13.728 0-26.867 2.393-39.168 6.61C375.154 82.118 496.875-18.543 384.04 64.303 258.923 156.17 266.034 348.84 266.175 352.371c0 .055-.006.104-.006.165z"></path>
  </symbol>
  <symbol xmlns="http://www.w3.org/2000/svg" viewBox="0 0 48.065 48.065" id="ribbon">
    <path d="M40.908 0H7.158a1 1 0 00-1 1v46.065a1 1 0 001.693.72l16.182-15.582 16.182 15.582a.996.996 0 001.085.2 1 1 0 00.608-.92V1a1 1 0 00-1-1zm-1 44.714L24.726 30.095c-.193-.187-.443-.28-.693-.28s-.5.093-.693.28L8.158 44.714V2h31.75v42.714z"></path>
  </symbol>
  <symbol xmlns="http://www.w3.org/2000/svg" viewBox="0 0 21.8 23.8" id="search">
    <path d="M.1 8.6a8.7 8.7 0 00.8 4.8 1 1 0 001.2.4.8.8 0 00.4-1.2 8.3 8.3 0 01-.7-3.8A7.62 7.62 0 0117 9.9a7.7 7.7 0 01-11.8 5.8.8.8 0 00-1.2.2.9.9 0 00.2 1.3 10 10 0 004.5 1.5 9.3 9.3 0 006.1-1.7l5.5 6.4a.9.9 0 00.6.3.7.7 0 00.7-.2.9.9 0 00.1-1.2l-5.6-6.4a8.9 8.9 0 002.6-5.8A9.33 9.33 0 10.1 8.6z" fill="#ecf6fc"></path>
  </symbol>
  <symbol xmlns="http://www.w3.org/2000/svg" viewBox="0 0 512 512" id="send">
    <path d="M481.508 210.336L68.414 38.926c-17.403-7.222-37.064-4.045-51.309 8.287C2.86 59.547-3.098 78.551 1.558 96.808L38.327 241h180.026c8.284 0 15.001 6.716 15.001 15.001 0 8.284-6.716 15.001-15.001 15.001H38.327L1.558 415.193c-4.656 18.258 1.301 37.262 15.547 49.595 14.274 12.357 33.937 15.495 51.31 8.287l413.094-171.409C500.317 293.862 512 276.364 512 256.001s-11.683-37.862-30.492-45.665z"></path>
  </symbol>
  <symbol xmlns="http://www.w3.org/2000/svg" viewBox="0 0 512.005 512.005" id="arrow-up">
  <g fill="orange">
    <path d="M466.22 205.787L263.553 3.12c-4.16-4.16-10.923-4.16-15.083 0L45.804 205.787c-21.803 21.803-21.803 57.28 0 79.083s57.28 21.803 79.083 0l77.781-77.781v251.584c0 29.397 23.936 53.333 53.333 53.333s53.333-23.936 53.333-53.333V207.088l77.781 77.781c21.803 21.803 57.28 21.803 79.083 0 21.803-21.781 21.803-57.28.022-79.082z"></path></g>
  </symbol>
  <symbol xmlns="http://www.w3.org/2000/svg" viewBox="0 0 480 480" id="user">
    <path d="M240 0C107.664 0 0 107.664 0 240c0 57.96 20.656 111.184 54.992 152.704.088.12.096.272.192.384 24.792 29.896 55.928 52.816 90.624 67.624.4.168.792.352 1.192.52 2.808 1.184 5.648 2.28 8.496 3.352 1.12.424 2.24.856 3.376 1.264 2.456.88 4.928 1.712 7.416 2.512 1.592.512 3.184 1.016 4.792 1.496 2.2.656 4.408 1.288 6.632 1.888 1.952.528 3.92 1.016 5.888 1.488 1.992.48 3.992.96 6 1.384 2.24.48 4.504.904 6.776 1.32 1.824.336 3.64.688 5.48.984 2.52.408 5.056.728 7.6 1.056 1.64.208 3.272.448 4.92.624 2.88.304 5.784.52 8.696.72 1.352.096 2.696.24 4.056.312 4.248.24 8.544.368 12.872.368s8.624-.128 12.888-.352c1.36-.072 2.704-.216 4.056-.312 2.912-.208 5.816-.416 8.696-.72 1.648-.176 3.28-.416 4.92-.624 2.544-.328 5.08-.648 7.6-1.056 1.832-.296 3.656-.648 5.48-.984 2.264-.416 4.528-.84 6.776-1.32 2.008-.432 4-.904 6-1.384 1.968-.48 3.936-.968 5.888-1.488a232.661 232.661 0 0011.424-3.384c2.488-.8 4.96-1.632 7.416-2.512 1.128-.408 2.248-.84 3.376-1.264a243.168 243.168 0 008.496-3.352c.4-.168.792-.352 1.192-.52a239.997 239.997 0 0090.624-67.624c.096-.112.104-.272.192-.384C459.344 351.184 480 297.96 480 240 480 107.664 372.336 0 240 0zm97.256 441.76c-.12.056-.232.12-.352.176-2.856 1.376-5.76 2.672-8.688 3.936-.664.28-1.32.568-1.984.848a217.023 217.023 0 01-7.76 3.064 159.85 159.85 0 01-3.272 1.192 230.572 230.572 0 01-6.976 2.368c-1.456.464-2.92.904-4.384 1.336a202.08 202.08 0 01-6.28 1.784c-1.776.472-3.568.904-5.36 1.328-1.88.448-3.752.904-5.648 1.304-2.072.44-4.16.816-6.24 1.192-1.688.312-3.368.64-5.072.912-2.344.368-4.712.664-7.072.96-1.496.192-2.984.416-4.496.576-2.696.288-5.416.472-8.128.664-1.208.08-2.408.216-3.632.28-3.96.208-7.928.32-11.912.32s-7.952-.112-11.904-.32c-1.216-.064-2.416-.192-3.632-.28-2.72-.184-5.432-.376-8.128-.664-1.512-.16-3-.384-4.496-.576-2.36-.296-4.728-.592-7.072-.96-1.704-.272-3.384-.6-5.072-.912-2.088-.376-4.176-.76-6.24-1.192-1.896-.4-3.776-.856-5.648-1.304-1.792-.432-3.584-.856-5.36-1.328-2.104-.56-4.2-1.168-6.28-1.784a212.543 212.543 0 01-4.384-1.336 223.256 223.256 0 01-6.976-2.368 217.023 217.023 0 01-11.032-4.256c-.664-.272-1.312-.56-1.976-.84a223.812 223.812 0 01-8.696-3.936 7.216 7.216 0 01-.352-.176c-27.912-13.504-52.568-32.672-72.576-55.952 15.464-56.944 59.24-102.848 115.56-121.112 1.112.68 2.272 1.288 3.416 1.928.672.376 1.336.776 2.016 1.136a99.592 99.592 0 007.272 3.512c1.896.832 3.856 1.536 5.808 2.256.384.136.768.288 1.152.424 10.848 3.84 22.456 6.04 34.6 6.04s23.752-2.2 34.592-6.04c.384-.136.768-.288 1.152-.424 1.952-.72 3.912-1.424 5.808-2.256a99.592 99.592 0 007.272-3.512c.68-.368 1.344-.76 2.016-1.136 1.144-.64 2.312-1.248 3.432-1.936 56.32 18.272 100.088 64.176 115.56 121.112-20.008 23.272-44.664 42.44-72.576 55.952zM152 176c0-48.52 39.48-88 88-88s88 39.48 88 88c0 30.864-16.008 58.024-40.128 73.736a84.742 84.742 0 01-9.8 5.48c-.4.192-.792.392-1.192.576-23.168 10.536-50.592 10.536-73.76 0-.4-.184-.8-.384-1.192-.576a84.083 84.083 0 01-9.8-5.48C168.008 234.024 152 206.864 152 176zm269.832 194.584c-18.136-53.552-59.512-96.832-112.376-117.392C330.6 234.144 344 206.64 344 176c0-57.344-46.656-104-104-104s-104 46.656-104 104c0 30.64 13.4 58.144 34.552 77.192-52.864 20.568-94.24 63.84-112.376 117.392C31.672 333.792 16 288.704 16 240 16 116.488 116.488 16 240 16s224 100.488 224 224c0 48.704-15.672 93.792-42.168 130.584z"></path>
  </symbol>
  <symbol xmlns="http://www.w3.org/2000/svg" viewBox="0 0 212.045 212.045" id="bookmark">
    <path d="M167.871 0H44.84C34.82 0 26.022 8.243 26.022 18v182c0 3.266.909 5.988 2.374 8.091a9.204 9.204 0 007.598 3.954c2.86 0 5.905-1.273 8.717-3.675l55.044-46.735c1.7-1.452 4.142-2.284 6.681-2.284 2.538 0 4.975.832 6.68 2.288l54.86 46.724c2.822 2.409 5.657 3.683 8.512 3.683 4.828 0 9.534-3.724 9.534-12.045V18c0-9.757-8.131-18-18.151-18z"></path>
  </symbol>
  <symbol xmlns="http://www.w3.org/2000/svg" viewBox="-40 0 427 427.001" id="delete">
  <g fill="red">
    <path d="M232.398 154.703c-5.523 0-10 4.477-10 10v189c0 5.52 4.477 10 10 10 5.524 0 10-4.48 10-10v-189c0-5.523-4.476-10-10-10zm-118 0c-5.523 0-10 4.477-10 10v189c0 5.52 4.477 10 10 10 5.524 0 10-4.48 10-10v-189c0-5.523-4.476-10-10-10zm0 0"></path>
    <path d="M28.398 127.121V373.5c0 14.563 5.34 28.238 14.668 38.05A49.246 49.246 0 0078.796 427H268a49.233 49.233 0 0035.73-15.45c9.329-9.812 14.668-23.487 14.668-38.05V127.121c18.543-4.922 30.559-22.836 28.079-41.863-2.485-19.024-18.692-33.254-37.88-33.258h-51.199V39.5a39.289 39.289 0 00-11.539-28.031A39.288 39.288 0 00217.797 0H129a39.288 39.288 0 00-28.063 11.469A39.289 39.289 0 0089.398 39.5V52H38.2C19.012 52.004 2.805 66.234.32 85.258c-2.48 19.027 9.535 36.941 28.078 41.863zM268 407H78.797c-17.098 0-30.399-14.688-30.399-33.5V128h250v245.5c0 18.813-13.3 33.5-30.398 33.5zM109.398 39.5a19.25 19.25 0 015.676-13.895A19.26 19.26 0 01129 20h88.797a19.26 19.26 0 0113.926 5.605 19.244 19.244 0 015.675 13.895V52h-128zM38.2 72h270.399c9.941 0 18 8.059 18 18s-8.059 18-18 18h-270.4c-9.941 0-18-8.059-18-18s8.059-18 18-18zm0 0"></path>
    <path d="M173.398 154.703c-5.523 0-10 4.477-10 10v189c0 5.52 4.477 10 10 10 5.524 0 10-4.48 10-10v-189c0-5.523-4.476-10-10-10zm0 0"></path>
    </g>
  </symbol>
  <symbol xmlns="http://www.w3.org/2000/svg" viewBox="0 0 383.947 383.947" id="edit">
    <path d="M0 303.947v80h80l236.053-236.054-80-80zM377.707 56.053L327.893 6.24c-8.32-8.32-21.867-8.32-30.187 0l-39.04 39.04 80 80 39.04-39.04c8.321-8.32 8.321-21.867.001-30.187z"></path>
  </symbol>
  <symbol xmlns="http://www.w3.org/2000/svg" viewBox="0 0 512 511" id="edit-table">
    <path d="M405.332 256.484c-11.797 0-21.332 9.559-21.332 21.332v170.668c0 11.754-9.559 21.332-21.332 21.332H64c-11.777 0-21.332-9.578-21.332-21.332V149.816c0-11.754 9.555-21.332 21.332-21.332h170.668c11.797 0 21.332-9.558 21.332-21.332 0-11.777-9.535-21.336-21.332-21.336H64c-35.285 0-64 28.715-64 64v298.668c0 35.286 28.715 64 64 64h298.668c35.285 0 64-28.714 64-64V277.816c0-11.796-9.54-21.332-21.336-21.332zm0 0"></path>
    <path d="M200.02 237.05a10.793 10.793 0 00-2.922 5.438l-15.082 75.438c-.703 3.496.406 7.101 2.922 9.64a10.673 10.673 0 007.554 3.114c.68 0 1.387-.063 2.09-.211l75.414-15.082c2.09-.43 3.988-1.43 5.461-2.926l168.79-168.79-75.415-75.41zM496.383 16.102c-20.797-20.801-54.633-20.801-75.414 0l-29.524 29.523 75.414 75.414 29.524-29.527C506.453 81.465 512 68.066 512 53.816s-5.547-27.648-15.617-37.714zm0 0"></path>
  </symbol>
  <symbol xmlns="http://www.w3.org/2000/svg" viewBox="0 0 50 2" id="line">
    <path fill="#63c3ef" d="M0 0h50v2H0z"></path>
  </symbol>
  <symbol xmlns="http://www.w3.org/2000/svg" viewBox="0 0 51 51" id="chevron">
    <circle cx="25.5" cy="25.5" r="25.5" fill="#393939"></circle>
    <rect x="24.4" y="27.9" width="1.6" height="15.24" rx=".8" transform="rotate(-39 11.114 37.674)"></rect>
    <rect x="33.3" y="27.9" width="1.6" height="15.24" rx=".8" transform="rotate(37.3 44.444 24.605)"></rect>
  </symbol>
  <symbol version="1.0" xmlns="http://www.w3.org/2000/svg" viewBox="0 0 692 692" id="logo-red">
  <g fill="red">
    <path d="M.3 109.2C.7 226.3.6 224.4 6 255c10 56 34.4 110.5 69 154 10.3 13 31.4 34.6 44 45.2 55.6 46.7 123.2 73.3 200 78.8 48.9 3.4 85.2-2.5 119.5-19.6 17-8.4 29.5-17.4 43-30.9 12.9-12.9 22.1-25.5 30.4-41.5 14-27.2 20.7-53.7 21.8-86.6 1.2-33.9-4.2-60.7-17.8-89.4-23.6-49.5-67.2-86.2-119.4-100.5-24-6.5-23.4-6.5-136.4-6.5H158v235.5l-8.1-8C110.8 347 84.4 294.1 75.1 236c-3.5-21.6-4.1-36.5-4.1-101.7V70.9l151.8.4c164.3.4 153.6.1 180.5 5.7 34 7.2 65.4 20.6 95.2 40.5 99.6 66.7 143.2 185.2 112.5 306-16.4 64.5-53.1 117.2-106.3 152.8-13 8.7-40.7 22.4-56.2 27.7-64.4 22.2-144.8 22-223.2-.6-83.3-24-159-74.6-214.6-143.2l-9.2-11.3-.3 52.8-.3 52.8 5.9 5.6c31.4 29.8 79.7 62.4 122.6 82.9 103 49.2 226.5 62.2 324.1 34.1 83.2-24 150.8-76.8 192.7-150.6 40.1-70.6 55.2-163.7 39.8-245C665.8 174.9 597.2 84.2 500.2 36 471.9 21.9 442.9 12.1 412 6.1 382.3.3 395 .6 189.2.3L-.1-.1l.4 109.3zM368.1 231c55.8 11.4 94.9 59.1 94.9 115.8 0 41.2-16.7 77-45 96.2-23.5 16-53.5 22.1-93.5 19.1-33.4-2.6-61.8-9.1-92.2-21.2l-3.3-1.3V229h64.6c60.9 0 65.2.1 74.5 2z"></path>
 </g> </symbol>
  <symbol version="1.0" xmlns="http://www.w3.org/2000/svg" viewBox="0 0 692 692" id="logo-light">
  <g fill="#f0fafa">
    <path d="M.3 109.2C.7 226.3.6 224.4 6 255c10 56 34.4 110.5 69 154 10.3 13 31.4 34.6 44 45.2 55.6 46.7 123.2 73.3 200 78.8 48.9 3.4 85.2-2.5 119.5-19.6 17-8.4 29.5-17.4 43-30.9 12.9-12.9 22.1-25.5 30.4-41.5 14-27.2 20.7-53.7 21.8-86.6 1.2-33.9-4.2-60.7-17.8-89.4-23.6-49.5-67.2-86.2-119.4-100.5-24-6.5-23.4-6.5-136.4-6.5H158v235.5l-8.1-8C110.8 347 84.4 294.1 75.1 236c-3.5-21.6-4.1-36.5-4.1-101.7V70.9l151.8.4c164.3.4 153.6.1 180.5 5.7 34 7.2 65.4 20.6 95.2 40.5 99.6 66.7 143.2 185.2 112.5 306-16.4 64.5-53.1 117.2-106.3 152.8-13 8.7-40.7 22.4-56.2 27.7-64.4 22.2-144.8 22-223.2-.6-83.3-24-159-74.6-214.6-143.2l-9.2-11.3-.3 52.8-.3 52.8 5.9 5.6c31.4 29.8 79.7 62.4 122.6 82.9 103 49.2 226.5 62.2 324.1 34.1 83.2-24 150.8-76.8 192.7-150.6 40.1-70.6 55.2-163.7 39.8-245C665.8 174.9 597.2 84.2 500.2 36 471.9 21.9 442.9 12.1 412 6.1 382.3.3 395 .6 189.2.3L-.1-.1l.4 109.3zM368.1 231c55.8 11.4 94.9 59.1 94.9 115.8 0 41.2-16.7 77-45 96.2-23.5 16-53.5 22.1-93.5 19.1-33.4-2.6-61.8-9.1-92.2-21.2l-3.3-1.3V229h64.6c60.9 0 65.2.1 74.5 2z"></path>
 </g> </symbol>
  <symbol version="1.0" xmlns="http://www.w3.org/2000/svg" viewBox="0 0 1024 1024" id="logo">
  <g fill="red">
    <path d="M0 512v512h1024V0H0v512zm558.5-335c104.3 8.8 199.9 65.2 258.4 152.5 29.7 44.3 48 92.8 55.8 148 2.6 18.7 2.6 72.1 0 91.5-11.1 82-43 149.3-95.7 202-80.7 80.8-197.1 112.1-332.3 89.4C351 844.7 260 800.2 191.2 736.5l-6.2-5.7v-52.7l.1-52.6 2.7 3.5c57.8 73.9 138 127.9 225.9 152 54.7 15 115 19.4 164.8 12.1 64.3-9.5 121.1-39.2 159.1-83.3 34.2-39.6 54.9-85.7 63.6-141.8 3.1-20 3.3-68 .4-86.5-4.5-29.2-12.5-54.3-25.6-81-13.6-27.5-27.9-48-49-69.9-37.5-38.9-87.7-66.8-139.7-77.7-26.7-5.6-17.5-5.3-181.1-5.6l-151.3-.4.4 74.3c.4 83 .4 84.2 8.1 115.3 12 48.4 36.7 92.6 70 125.5l7.6 7.4V333.9l106.8.4 106.7.3 12 2.7c44.7 9.9 82 32.6 109.4 66.7 37.9 47.2 50.6 107.8 35.4 170-18.1 74.6-73.1 123.1-152.3 134.2-12.1 1.6-52.5 1.6-68-.1-81.8-9-150.3-40.2-204.4-93-56.1-55-87.6-118.9-100.3-204.1-1.5-10.2-1.7-24.1-2-123.3l-.4-111.7h181.3c113.6 0 185.8.4 193.3 1z"></path>
    <path d="M412 510.4v105.3l9.4 3.6c34.1 13.1 66.4 19 104.6 19.1 30.5.1 44.2-2.6 64-12.5 34.5-17.3 53.2-49.2 56.5-96.4 2.2-32.9-10.6-66.8-34.4-90.5-12.9-12.9-27.1-21.8-44.5-27.9-16.8-5.9-19.4-6.1-90.7-6.1H412v105.4z"></path>
  </g></symbol>
</svg>